<svg width="879" height="75" viewBox="0 0 879 75" fill="none" xmlns="http://www.w3.org/2000/svg">
<path d="M3 0H0V75H3V0Z" fill="#EB6A2C"/>
<path d="M6 0H4V75H6V0Z" fill="#EB6A2C"/>
<path d="M11 0H9V75H11V0Z" fill="#EB6A2C"/>
<path d="M24 0H17V75H24V0Z" fill="#EB6A2C"/>
<path d="M28 0H26V75H28V0Z" fill="#EB6A2C"/>
<path d="M34 0H29V75H34V0Z" fill="#EB6A2C"/>
<path d="M38 0H36V75H38V0Z" fill="#EB6A2C"/>
<path d="M45 0H43V75H45V0Z" fill="#EB6A2C"/>
<path d="M49 0H46V75H49V0Z" fill="#EB6A2C"/>
<path d="M56 0H54V75H56V0Z" fill="#EB6A2C"/>
<path d="M59 0H58V75H59V0Z" fill="#EB6A2C"/>
<path d="M68 0H64V75H68V0Z" fill="#EB6A2C"/>
<path d="M75 0H72V75H75V0Z" fill="#EB6A2C"/>
<path d="M83 0H81V75H83V0Z" fill="#EB6A2C"/>
<path d="M89 0H84V75H89V0Z" fill="#EB6A2C"/>
<path d="M93 0H91V75H93V0Z" fill="#EB6A2C"/>
<path d="M99 0H97V75H99V0Z" fill="#EB6A2C"/>
<path d="M108 0H104V75H108V0Z" fill="#EB6A2C"/>
<path d="M111 0H109V75H111V0Z" fill="#EB6A2C"/>
<path d="M121 0H116V75H121V0Z" fill="#EB6A2C"/>
<path d="M126 0H123V75H126V0Z" fill="#EB6A2C"/>
<path d="M129 0H128V75H129V0Z" fill="#EB6A2C"/>
<path d="M134 0H131V75H134V0Z" fill="#EB6A2C"/>
<path d="M141 0H139V75H141V0Z" fill="#EB6A2C"/>
<path d="M147 0H146V75H147V0Z" fill="#EB6A2C"/>
<path d="M156 0H152V75H156V0Z" fill="#EB6A2C"/>
<path d="M159 0H158V75H159V0Z" fill="#EB6A2C"/>
<path d="M162 0H159V75H162V0Z" fill="#EB6A2C"/>
<path d="M165 0H163V75H165V0Z" fill="#EB6A2C"/>
<path d="M170 0H168V75H170V0Z" fill="#EB6A2C"/>
<path d="M183 0H176V75H183V0Z" fill="#EB6A2C"/>
<path d="M187 0H185V75H187V0Z" fill="#EB6A2C"/>
<path d="M193 0H188V75H193V0Z" fill="#EB6A2C"/>
<path d="M197 0H195V75H197V0Z" fill="#EB6A2C"/>
<path d="M204 0H202V75H204V0Z" fill="#EB6A2C"/>
<path d="M208 0H205V75H208V0Z" fill="#EB6A2C"/>
<path d="M215 0H213V75H215V0Z" fill="#EB6A2C"/>
<path d="M218 0H217V75H218V0Z" fill="#EB6A2C"/>
<path d="M227 0H223V75H227V0Z" fill="#EB6A2C"/>
<path d="M234 0H231V75H234V0Z" fill="#EB6A2C"/>
<path d="M242 0H240V75H242V0Z" fill="#EB6A2C"/>
<path d="M248 0H243V75H248V0Z" fill="#EB6A2C"/>
<path d="M252 0H250V75H252V0Z" fill="#EB6A2C"/>
<path d="M258 0H256V75H258V0Z" fill="#EB6A2C"/>
<path d="M267 0H263V75H267V0Z" fill="#EB6A2C"/>
<path d="M270 0H268V75H270V0Z" fill="#EB6A2C"/>
<path d="M280 0H275V75H280V0Z" fill="#EB6A2C"/>
<path d="M285 0H282V75H285V0Z" fill="#EB6A2C"/>
<path d="M288 0H287V75H288V0Z" fill="#EB6A2C"/>
<path d="M293 0H290V75H293V0Z" fill="#EB6A2C"/>
<path d="M296 0H293V75H296V0Z" fill="#EB6A2C"/>
<path d="M299 0H297V75H299V0Z" fill="#EB6A2C"/>
<path d="M304 0H302V75H304V0Z" fill="#EB6A2C"/>
<path d="M317 0H310V75H317V0Z" fill="#EB6A2C"/>
<path d="M321 0H319V75H321V0Z" fill="#EB6A2C"/>
<path d="M327 0H322V75H327V0Z" fill="#EB6A2C"/>
<path d="M331 0H329V75H331V0Z" fill="#EB6A2C"/>
<path d="M338 0H336V75H338V0Z" fill="#EB6A2C"/>
<path d="M342 0H339V75H342V0Z" fill="#EB6A2C"/>
<path d="M349 0H347V75H349V0Z" fill="#EB6A2C"/>
<path d="M352 0H351V75H352V0Z" fill="#EB6A2C"/>
<path d="M361 0H357V75H361V0Z" fill="#EB6A2C"/>
<path d="M368 0H365V75H368V0Z" fill="#EB6A2C"/>
<path d="M376 0H374V75H376V0Z" fill="#EB6A2C"/>
<path d="M382 0H377V75H382V0Z" fill="#EB6A2C"/>
<path d="M386 0H384V75H386V0Z" fill="#EB6A2C"/>
<path d="M392 0H390V75H392V0Z" fill="#EB6A2C"/>
<path d="M401 0H397V75H401V0Z" fill="#EB6A2C"/>
<path d="M404 0H402V75H404V0Z" fill="#EB6A2C"/>
<path d="M414 0H409V75H414V0Z" fill="#EB6A2C"/>
<path d="M419 0H416V75H419V0Z" fill="#EB6A2C"/>
<path d="M422 0H421V75H422V0Z" fill="#EB6A2C"/>
<path d="M427 0H424V75H427V0Z" fill="#EB6A2C"/>
<path d="M434 0H432V75H434V0Z" fill="#EB6A2C"/>
<path d="M440 0H439V75H440V0Z" fill="#EB6A2C"/>
<path d="M449 0H445V75H449V0Z" fill="#EB6A2C"/>
<path d="M452 0H451V75H452V0Z" fill="#EB6A2C"/>
<path d="M455 0H452V75H455V0Z" fill="#EB6A2C"/>
<path d="M458 0H456V75H458V0Z" fill="#EB6A2C"/>
<path d="M463 0H461V75H463V0Z" fill="#EB6A2C"/>
<path d="M476 0H469V75H476V0Z" fill="#EB6A2C"/>
<path d="M480 0H478V75H480V0Z" fill="#EB6A2C"/>
<path d="M486 0H481V75H486V0Z" fill="#EB6A2C"/>
<path d="M490 0H488V75H490V0Z" fill="#EB6A2C"/>
<path d="M497 0H495V75H497V0Z" fill="#EB6A2C"/>
<path d="M501 0H498V75H501V0Z" fill="#EB6A2C"/>
<path d="M508 0H506V75H508V0Z" fill="#EB6A2C"/>
<path d="M511 0H510V75H511V0Z" fill="#EB6A2C"/>
<path d="M520 0H516V75H520V0Z" fill="#EB6A2C"/>
<path d="M527 0H524V75H527V0Z" fill="#EB6A2C"/>
<path d="M535 0H533V75H535V0Z" fill="#EB6A2C"/>
<path d="M541 0H536V75H541V0Z" fill="#EB6A2C"/>
<path d="M545 0H543V75H545V0Z" fill="#EB6A2C"/>
<path d="M551 0H549V75H551V0Z" fill="#EB6A2C"/>
<path d="M560 0H556V75H560V0Z" fill="#EB6A2C"/>
<path d="M563 0H561V75H563V0Z" fill="#EB6A2C"/>
<path d="M573 0H568V75H573V0Z" fill="#EB6A2C"/>
<path d="M578 0H575V75H578V0Z" fill="#EB6A2C"/>
<path d="M581 0H580V75H581V0Z" fill="#EB6A2C"/>
<path d="M586 0H583V75H586V0Z" fill="#EB6A2C"/>
<path d="M589 0H586V75H589V0Z" fill="#EB6A2C"/>
<path d="M592 0H590V75H592V0Z" fill="#EB6A2C"/>
<path d="M597 0H595V75H597V0Z" fill="#EB6A2C"/>
<path d="M610 0H603V75H610V0Z" fill="#EB6A2C"/>
<path d="M614 0H612V75H614V0Z" fill="#EB6A2C"/>
<path d="M620 0H615V75H620V0Z" fill="#EB6A2C"/>
<path d="M624 0H622V75H624V0Z" fill="#EB6A2C"/>
<path d="M631 0H629V75H631V0Z" fill="#EB6A2C"/>
<path d="M635 0H632V75H635V0Z" fill="#EB6A2C"/>
<path d="M642 0H640V75H642V0Z" fill="#EB6A2C"/>
<path d="M645 0H644V75H645V0Z" fill="#EB6A2C"/>
<path d="M654 0H650V75H654V0Z" fill="#EB6A2C"/>
<path d="M661 0H658V75H661V0Z" fill="#EB6A2C"/>
<path d="M669 0H667V75H669V0Z" fill="#EB6A2C"/>
<path d="M675 0H670V75H675V0Z" fill="#EB6A2C"/>
<path d="M679 0H677V75H679V0Z" fill="#EB6A2C"/>
<path d="M685 0H683V75H685V0Z" fill="#EB6A2C"/>
<path d="M694 0H690V75H694V0Z" fill="#EB6A2C"/>
<path d="M697 0H695V75H697V0Z" fill="#EB6A2C"/>
<path d="M707 0H702V75H707V0Z" fill="#EB6A2C"/>
<path d="M712 0H709V75H712V0Z" fill="#EB6A2C"/>
<path d="M715 0H714V75H715V0Z" fill="#EB6A2C"/>
<path d="M720 0H717V75H720V0Z" fill="#EB6A2C"/>
<path d="M727 0H725V75H727V0Z" fill="#EB6A2C"/>
<path d="M733 0H732V75H733V0Z" fill="#EB6A2C"/>
<path d="M742 0H738V75H742V0Z" fill="#EB6A2C"/>
<path d="M745 0H744V75H745V0Z" fill="#EB6A2C"/>
<path d="M748 0H745V75H748V0Z" fill="#EB6A2C"/>
<path d="M751 0H749V75H751V0Z" fill="#EB6A2C"/>
<path d="M756 0H754V75H756V0Z" fill="#EB6A2C"/>
<path d="M769 0H762V75H769V0Z" fill="#EB6A2C"/>
<path d="M773 0H771V75H773V0Z" fill="#EB6A2C"/>
<path d="M779 0H774V75H779V0Z" fill="#EB6A2C"/>
<path d="M783 0H781V75H783V0Z" fill="#EB6A2C"/>
<path d="M790 0H788V75H790V0Z" fill="#EB6A2C"/>
<path d="M794 0H791V75H794V0Z" fill="#EB6A2C"/>
<path d="M801 0H799V75H801V0Z" fill="#EB6A2C"/>
<path d="M804 0H803V75H804V0Z" fill="#EB6A2C"/>
<path d="M813 0H809V75H813V0Z" fill="#EB6A2C"/>
<path d="M820 0H817V75H820V0Z" fill="#EB6A2C"/>
<path d="M828 0H826V75H828V0Z" fill="#EB6A2C"/>
<path d="M834 0H829V75H834V0Z" fill="#EB6A2C"/>
<path d="M838 0H836V75H838V0Z" fill="#EB6A2C"/>
<path d="M844 0H842V75H844V0Z" fill="#EB6A2C"/>
<path d="M853 0H849V75H853V0Z" fill="#EB6A2C"/>
<path d="M856 0H854V75H856V0Z" fill="#EB6A2C"/>
<path d="M866 0H861V75H866V0Z" fill="#EB6A2C"/>
<path d="M871 0H868V75H871V0Z" fill="#EB6A2C"/>
<path d="M874 0H873V75H874V0Z" fill="#EB6A2C"/>
<path d="M879 0H876V75H879V0Z" fill="#EB6A2C"/>
</svg>
